<svg width="48" height="48" viewBox="0 0 48 48" fill="none" xmlns="http://www.w3.org/2000/svg">
<path d="M31.1968 37.895C33.2028 39.4821 35.6965 40.4226 38.3989 40.4226C41.0991 40.4226 43.591 39.4836 45.5962 37.8988L45.5974 46.1016C45.5974 47.5439 44.1467 48.4249 42.9813 47.7917L42.7666 47.6551L38.398 44.4402L34.0312 47.6551C32.9083 48.4812 31.3916 47.7336 31.217 46.3652L31.2004 46.1016L31.1968 37.895ZM41.3971 0C44.907 0 47.7769 2.88494 47.9846 6.5256L47.9967 6.94891L48 20.2045C47.0297 18.8445 45.8049 17.6974 44.4 16.8415L44.3969 6.94891C44.3969 5.31349 43.2165 3.96837 41.7039 3.80662L41.3971 3.79031H6.59955C5.04635 3.79031 3.76886 5.03322 3.61524 6.62596L3.59975 6.94891V30.9542C3.59975 32.5896 4.78017 33.9347 6.29283 34.0965L6.59955 34.1128L28.0082 34.113C28.2478 34.5482 28.5113 34.9671 28.7969 35.3675L28.798 37.9031H6.59955C3.08971 37.9031 0.219814 35.0182 0.0120441 31.3775L0 30.9542V6.94891C0 3.25327 2.7399 0.231451 6.19752 0.0126817L6.59955 0H41.3971ZM38.3989 17.6775C43.7013 17.6775 47.9998 22.2035 47.9998 27.7866C47.9998 33.3697 43.7013 37.8957 38.3989 37.8957C33.0965 37.8957 28.798 33.3697 28.798 27.7866C28.798 22.2035 33.0965 17.6775 38.3989 17.6775ZM22.1985 23.9947C23.1925 23.9947 23.9983 24.8432 23.9983 25.8898C23.9983 26.8493 23.3212 27.6422 22.4427 27.7677L22.1985 27.785H11.3992C10.4052 27.785 9.59934 26.9365 9.59934 25.8898C9.59934 24.9304 10.2765 24.1375 11.155 24.012L11.3992 23.9947H22.1985ZM36.5975 10.0969C37.5915 10.0969 38.3974 10.9454 38.3974 11.992C38.3974 12.9515 37.7202 13.7444 36.8417 13.8699L36.5975 13.8872H11.3992C10.4052 13.8872 9.59934 13.0387 9.59934 11.992C9.59934 11.0326 10.2765 10.2397 11.155 10.1142L11.3992 10.0969H36.5975Z" fill="#212121"/>
</svg>
