<svg width="21" height="27" viewBox="0 0 21 27" fill="none" xmlns="http://www.w3.org/2000/svg">
<path fill-rule="evenodd" clip-rule="evenodd" d="M12.3072 5.04416C11.1135 4.39328 9.67097 4.39328 8.47737 5.04416L2.08507 8.52972C0.79976 9.23057 0 10.5776 0 12.0416V18.6251C0 20.0891 0.79976 21.4361 2.08507 22.1369L8.47737 25.6225C9.67097 26.2733 11.1135 26.2733 12.3072 25.6225L18.6995 22.1369C19.9848 21.4361 20.7846 20.0891 20.7846 18.6251V12.0416C20.7846 10.5776 19.9848 9.23057 18.6995 8.52972L12.3072 5.04416ZM10.3926 11.3333C10.0138 11.3333 9.76044 11.7877 9.25377 12.6967L9.12271 12.9319C8.97884 13.1901 8.90684 13.3192 8.79457 13.4044C8.68231 13.4896 8.54257 13.5213 8.26297 13.5845L8.00844 13.6421C7.02452 13.8648 6.53259 13.976 6.41555 14.3524C6.29851 14.7288 6.63387 15.1209 7.30461 15.9053L7.47815 16.1083C7.66875 16.3311 7.76404 16.4425 7.80697 16.5804C7.84977 16.7183 7.83537 16.8669 7.80657 17.1644L7.78031 17.4351C7.67892 18.4816 7.62823 19.0048 7.93457 19.2375C8.24111 19.47 8.70164 19.258 9.62284 18.8339L9.86111 18.7241C10.123 18.6036 10.2538 18.5433 10.3926 18.5433C10.5314 18.5433 10.6622 18.6036 10.924 18.7241L11.1623 18.8339C12.0835 19.258 12.544 19.47 12.8506 19.2375C13.157 19.0048 13.1062 18.4816 13.0048 17.4351L12.9786 17.1644C12.9498 16.8669 12.9354 16.7183 12.9782 16.5804C13.0211 16.4425 13.1164 16.3311 13.307 16.1083L13.4806 15.9053C14.1512 15.1209 14.4867 14.7288 14.3696 14.3524C14.2526 13.976 13.7606 13.8648 12.7767 13.6421L12.5222 13.5845C12.2426 13.5213 12.1028 13.4896 11.9906 13.4044C11.8783 13.3192 11.8063 13.1901 11.6624 12.9319L11.5314 12.6967C11.0247 11.7877 10.7714 11.3333 10.3926 11.3333Z" fill="#3925DD"/>
<path d="M9.05916 0H11.7258C14.24 0 15.497 -7.94729e-08 16.2781 0.781053C17.0592 1.56209 17.0592 2.81917 17.0592 5.33333V5.35729L13.2646 3.28821C11.4741 2.31192 9.31036 2.31191 7.51984 3.28821L3.72583 5.357V5.33333C3.72583 2.81917 3.72583 1.56209 4.50688 0.781053C5.28792 -7.94729e-08 6.545 0 9.05916 0Z" fill="#3925DD"/>
</svg>
