<svg width="32" height="40" viewBox="0 0 32 40" fill="none" xmlns="http://www.w3.org/2000/svg">
<path fill-rule="evenodd" clip-rule="evenodd" d="M18.4609 7.56622C16.6703 6.5899 14.5065 6.5899 12.7161 7.56622L3.1276 12.7946C1.19964 13.8458 0 15.8664 0 18.0624V27.9376C0 30.1336 1.19964 32.1542 3.1276 33.2054L12.7161 38.4338C14.5065 39.41 16.6703 39.41 18.4609 38.4338L28.0493 33.2054C29.9773 32.1542 31.1769 30.1336 31.1769 27.9376V18.0624C31.1769 15.8664 29.9773 13.8458 28.0493 12.7946L18.4609 7.56622ZM15.5889 17C15.0207 17 14.6407 17.6816 13.8807 19.045L13.6841 19.3978C13.4683 19.7852 13.3603 19.9788 13.1919 20.1066C13.0235 20.2344 12.8139 20.282 12.3945 20.3768L12.0127 20.4632C10.5368 20.7972 9.79888 20.964 9.62332 21.5286C9.44776 22.0932 9.9508 22.6814 10.9569 23.858L11.2172 24.1624C11.5031 24.4966 11.6461 24.6638 11.7105 24.8706C11.7747 25.0774 11.7531 25.3004 11.7099 25.7466L11.6705 26.1526C11.5184 27.7224 11.4423 28.5072 11.9019 28.8562C12.3617 29.205 13.0525 28.887 14.4343 28.2508L14.7917 28.0862C15.1845 27.9054 15.3807 27.815 15.5889 27.815C15.7971 27.815 15.9933 27.9054 16.3861 28.0862L16.7435 28.2508C18.1253 28.887 18.8161 29.205 19.2759 28.8562C19.7355 28.5072 19.6593 27.7224 19.5073 26.1526L19.4679 25.7466C19.4247 25.3004 19.4031 25.0774 19.4673 24.8706C19.5317 24.6638 19.6747 24.4966 19.9605 24.1624L20.2209 23.858C21.2269 22.6814 21.7301 22.0932 21.5545 21.5286C21.3789 20.964 20.6409 20.7972 19.1651 20.4632L18.7833 20.3768C18.3639 20.282 18.1543 20.2344 17.9859 20.1066C17.8175 19.9788 17.7095 19.7852 17.4937 19.3978L17.2971 19.045C16.5371 17.6816 16.1571 17 15.5889 17Z" fill="#152F56"/>
<path d="M13.5889 0H17.5889C21.3601 0 23.2457 -1.19209e-07 24.4173 1.17158C25.5889 2.34314 25.5889 4.22876 25.5889 8V8.03594L19.8971 4.93232C17.2113 3.46788 13.9657 3.46786 11.2799 4.93232L5.58887 8.0355V8C5.58887 4.22876 5.58887 2.34314 6.76045 1.17158C7.93201 -1.19209e-07 9.81763 0 13.5889 0Z" fill="#152F56"/>
</svg>
