<svg width="310" height="94" viewBox="0 0 310 94" fill="none" xmlns="http://www.w3.org/2000/svg">
<path fill-rule="evenodd" clip-rule="evenodd" d="M51.4998 22.0763C48.0682 20.2128 43.9213 20.2128 40.4901 22.0763L22.1141 32.0556C18.4192 34.0621 16.1201 37.9187 16.1201 42.1102V60.9588C16.1201 65.1503 18.4192 69.007 22.1141 71.0134L40.4901 80.9927C43.9213 82.856 48.0682 82.856 51.4998 80.9927L69.8757 71.0134C73.5707 69.007 75.8697 65.1503 75.8697 60.9588V42.1102C75.8697 37.9187 73.5707 34.0621 69.8757 32.0556L51.4998 22.0763ZM45.9957 40.0824C44.9068 40.0824 44.1785 41.3834 42.722 43.9857L42.3452 44.659C41.9317 45.3985 41.7247 45.768 41.402 46.0119C41.0792 46.2558 40.6775 46.3467 39.8738 46.5276L39.142 46.6926C36.3136 47.3301 34.8994 47.6484 34.5629 48.7261C34.2265 49.8037 35.1905 50.9264 37.1187 53.1721L37.6176 53.7532C38.1655 54.391 38.4395 54.7102 38.5629 55.1049C38.6859 55.4996 38.6445 55.9252 38.5617 56.7769L38.4862 57.5518C38.1948 60.5481 38.049 62.046 38.9297 62.7121C39.8109 63.3779 41.1348 62.7709 43.783 61.5566L44.4679 61.2424C45.2207 60.8974 45.5967 60.7248 45.9957 60.7248C46.3947 60.7248 46.7708 60.8974 47.5235 61.2424L48.2085 61.5566C50.8567 62.7709 52.1806 63.3779 53.0618 62.7121C53.9426 62.046 53.7965 60.5481 53.5052 57.5518L53.4297 56.7769C53.3469 55.9252 53.3055 55.4996 53.4286 55.1049C53.552 54.7102 53.8261 54.391 54.3738 53.7532L54.8728 53.1721C56.8008 50.9264 57.7652 49.8037 57.4286 48.7261C57.0921 47.6484 55.6778 47.3301 52.8494 46.6926L52.1177 46.5276C51.3139 46.3467 50.9123 46.2558 50.5895 46.0119C50.2668 45.768 50.0598 45.3985 49.6462 44.659L49.2695 43.9857C47.8129 41.3834 47.0847 40.0824 45.9957 40.0824Z" fill="#3925DD"/>
<path d="M42.1619 7.63477H49.8278C57.0552 7.63477 60.6689 7.63477 62.9142 9.87094C65.1595 12.1071 65.1595 15.7061 65.1595 22.9042V22.9728L54.2514 17.049C49.1041 14.2538 42.884 14.2538 37.7368 17.049L26.8301 22.972V22.9042C26.8301 15.7061 26.8301 12.1071 29.0754 9.87094C31.3206 7.63477 34.9344 7.63477 42.1619 7.63477Z" fill="#3925DD"/>
<path d="M137.95 60.173C138.225 60.173 138.501 60.232 138.776 60.3498C139.052 60.4441 139.316 60.6208 139.568 60.88L144.183 65.8643C142.163 68.5744 139.626 70.6246 136.572 72.015C133.541 73.3819 129.948 74.0653 125.792 74.0653C121.98 74.0653 118.559 73.4054 115.528 72.0857C112.52 70.7425 109.96 68.9043 107.847 66.5713C105.758 64.2146 104.151 61.4338 103.026 58.2288C101.9 55.0003 101.338 51.5007 101.338 47.7301C101.338 43.8888 101.946 40.3657 103.163 37.1607C104.38 33.9321 106.091 31.1513 108.295 28.8183C110.499 26.4852 113.14 24.6706 116.217 23.3745C119.294 22.0784 122.68 21.4303 126.377 21.4303C128.26 21.4303 130.028 21.607 131.681 21.9605C133.357 22.2905 134.919 22.7618 136.365 23.3745C137.812 23.9637 139.143 24.6824 140.36 25.5308C141.577 26.3792 142.657 27.2983 143.598 28.288L139.672 33.6965C139.419 34.0264 139.121 34.3328 138.776 34.6156C138.432 34.8748 137.95 35.0044 137.33 35.0044C136.916 35.0044 136.526 34.9101 136.159 34.7216C135.791 34.5331 135.401 34.3092 134.988 34.05C134.574 33.7672 134.115 33.4726 133.61 33.1662C133.128 32.8363 132.542 32.5417 131.853 32.2825C131.187 31.9997 130.395 31.7641 129.477 31.5755C128.581 31.387 127.525 31.2927 126.308 31.2927C124.379 31.2927 122.611 31.658 121.004 32.3886C119.42 33.1191 118.042 34.1914 116.871 35.6053C115.723 36.9957 114.828 38.7161 114.185 40.7663C113.565 42.793 113.255 45.1143 113.255 47.7301C113.255 50.3695 113.599 52.7144 114.288 54.7646C115 56.8149 115.953 58.547 117.147 59.961C118.364 61.3514 119.776 62.4118 121.383 63.1424C122.99 63.8729 124.712 64.2382 126.549 64.2382C127.605 64.2382 128.57 64.1911 129.442 64.0968C130.315 63.979 131.13 63.8022 131.888 63.5666C132.645 63.3073 133.357 62.9774 134.023 62.5768C134.689 62.1526 135.366 61.6224 136.055 60.9861C136.331 60.7504 136.629 60.5619 136.951 60.4205C137.272 60.2555 137.605 60.173 137.95 60.173Z" fill="#152F56"/>
<path d="M169.5 50.7702C169.5 49.8982 169.386 49.0498 169.156 48.225C168.949 47.4002 168.593 46.6696 168.088 46.0334C167.606 45.3735 166.963 44.8433 166.159 44.4426C165.356 44.042 164.38 43.8417 163.232 43.8417C161.211 43.8417 159.627 44.4426 158.479 45.6445C157.331 46.8228 156.573 48.5314 156.206 50.7702H169.5ZM156.068 57.133C156.412 60.1966 157.319 62.4236 158.789 63.814C160.258 65.1809 162.153 65.8643 164.472 65.8643C165.712 65.8643 166.779 65.7111 167.675 65.4047C168.57 65.0984 169.363 64.7567 170.051 64.3796C170.763 64.0025 171.406 63.6608 171.98 63.3545C172.577 63.0481 173.197 62.8949 173.84 62.8949C174.69 62.8949 175.332 63.2131 175.769 63.8494L178.868 67.7731C177.766 69.0693 176.572 70.1297 175.287 70.9546C174.024 71.7558 172.715 72.3921 171.36 72.8634C170.028 73.3112 168.685 73.6175 167.33 73.7825C165.999 73.971 164.724 74.0653 163.507 74.0653C161.005 74.0653 158.651 73.6529 156.447 72.8281C154.266 71.9797 152.348 70.7307 150.695 69.0811C149.065 67.4314 147.768 65.3812 146.803 62.9303C145.862 60.4794 145.391 57.6279 145.391 54.3758C145.391 51.9249 145.793 49.6036 146.597 47.412C147.423 45.2203 148.594 43.2997 150.11 41.6501C151.648 40.0004 153.496 38.6925 155.655 37.7263C157.836 36.7601 160.293 36.277 163.025 36.277C165.39 36.277 167.549 36.654 169.5 37.4081C171.475 38.1623 173.163 39.2581 174.563 40.6956C175.987 42.1332 177.089 43.9006 177.87 45.998C178.673 48.0718 179.075 50.4284 179.075 53.0679C179.075 53.8927 179.041 54.5643 178.972 55.0828C178.903 55.6012 178.777 56.0136 178.593 56.32C178.409 56.6263 178.157 56.8384 177.835 56.9563C177.537 57.0741 177.146 57.133 176.664 57.133H156.068Z" fill="#152F56"/>
<path d="M194.406 42.4984C195.508 40.5189 196.771 38.9635 198.195 37.8323C199.641 36.7012 201.294 36.1356 203.154 36.1356C204.762 36.1356 206.07 36.5244 207.081 37.3021L206.392 45.3617C206.277 45.8802 206.082 46.2337 205.806 46.4222C205.554 46.6107 205.198 46.705 204.739 46.705C204.555 46.705 204.314 46.6932 204.015 46.6696C203.717 46.6461 203.407 46.6225 203.085 46.5989C202.764 46.5518 202.431 46.5165 202.087 46.4929C201.765 46.4458 201.467 46.4222 201.191 46.4222C199.63 46.4222 198.378 46.8464 197.437 47.6948C196.518 48.5432 195.738 49.7215 195.095 51.2297V73.4997H184.418V36.8426H190.755C191.283 36.8426 191.72 36.8897 192.064 36.984C192.431 37.0782 192.73 37.2314 192.959 37.4435C193.212 37.632 193.396 37.8913 193.511 38.2212C193.648 38.5511 193.763 38.9517 193.855 39.4231L194.406 42.4984Z" fill="#152F56"/>
<path d="M249.329 73.4997H238.652V44.4073H223.705V62.6121C223.705 63.4605 223.9 64.1675 224.29 64.7331C224.704 65.2751 225.289 65.5461 226.047 65.5461C226.437 65.5461 226.759 65.5108 227.011 65.4401C227.287 65.3458 227.516 65.2516 227.7 65.1573C227.907 65.0395 228.09 64.9452 228.251 64.8745C228.435 64.7802 228.641 64.7331 228.871 64.7331C229.192 64.7331 229.445 64.8156 229.629 64.9805C229.835 65.1219 230.042 65.3576 230.249 65.6875L233.486 70.8839C232.108 71.9443 230.559 72.7456 228.837 73.2876C227.114 73.8061 225.335 74.0653 223.498 74.0653C221.799 74.0653 220.295 73.8178 218.986 73.323C217.7 72.8045 216.61 72.0857 215.714 71.1667C214.842 70.224 214.176 69.0928 213.717 67.7731C213.257 66.4534 213.028 64.9805 213.028 63.3545V44.4073H209.997C209.446 44.4073 208.975 44.2305 208.585 43.8771C208.194 43.5 207.999 42.958 207.999 42.251V37.9737L213.682 36.8072L215.783 27.8992C216.059 26.768 216.839 26.2024 218.125 26.2024H223.705V36.9133H249.329V73.4997ZM250.81 26.768C250.81 27.64 250.638 28.4648 250.294 29.2425C249.949 30.0202 249.479 30.7036 248.882 31.2927C248.285 31.8583 247.584 32.3061 246.781 32.636C246 32.9659 245.162 33.1309 244.266 33.1309C243.394 33.1309 242.579 32.9659 241.821 32.636C241.063 32.3061 240.386 31.8583 239.789 31.2927C239.215 30.7036 238.756 30.0202 238.411 29.2425C238.09 28.4648 237.929 27.64 237.929 26.768C237.929 25.8961 238.09 25.0713 238.411 24.2936C238.756 23.4923 239.215 22.8089 239.789 22.2433C240.386 21.6542 241.063 21.1946 241.821 20.8647C242.579 20.5112 243.394 20.3345 244.266 20.3345C245.162 20.3345 246 20.5112 246.781 20.8647C247.584 21.1946 248.285 21.6542 248.882 22.2433C249.479 22.8089 249.949 23.4923 250.294 24.2936C250.638 25.0713 250.81 25.8961 250.81 26.768Z" fill="#152F56"/>
<path d="M260.864 73.4997V42.0035L256.042 41.6854C255.399 41.6147 255.077 41.3201 255.077 40.8017V39.4231H260.864V34.9691C260.864 32.9659 261.116 31.2102 261.621 29.702C262.126 28.1702 262.838 26.8976 263.757 25.8843C264.675 24.871 265.777 24.1168 267.063 23.622C268.349 23.1035 269.773 22.8443 271.334 22.8443C272.046 22.8443 272.758 22.915 273.469 23.0564C274.204 23.1742 274.858 23.3509 275.432 23.5866L275.329 25.2127C275.283 25.4248 275.18 25.5662 275.019 25.6369C274.881 25.684 274.675 25.7076 274.399 25.7076C274.124 25.684 273.768 25.6486 273.332 25.6015C272.895 25.5308 272.39 25.4955 271.816 25.4955C270.691 25.4955 269.646 25.6722 268.682 26.0257C267.74 26.3556 266.925 26.8976 266.237 27.6518C265.548 28.4059 265.008 29.3957 264.618 30.6211C264.25 31.823 264.067 33.3076 264.067 35.0751V39.4231H275.191V41.9328H264.17V73.4997H260.864Z" fill="#152F56"/>
<path d="M310 38.3272L290.299 84.8115C290.161 85.1414 289.978 85.4124 289.748 85.6245C289.541 85.8366 289.231 85.9426 288.818 85.9426H286.476L292.503 72.1918L278.003 38.3272H280.724C281.069 38.3272 281.344 38.4215 281.551 38.61C281.757 38.775 281.895 38.9635 281.964 39.1756L293.502 66.5359C293.64 66.8894 293.755 67.2547 293.846 67.6317C293.961 67.9852 294.065 68.3505 294.156 68.7276C294.271 68.3505 294.386 67.9852 294.501 67.6317C294.639 67.2547 294.776 66.8894 294.914 66.5359L306.314 39.1756C306.429 38.9164 306.59 38.7161 306.797 38.5747C307.003 38.4097 307.233 38.3272 307.485 38.3272H310Z" fill="#152F56"/>
</svg>
