<svg width="95" height="95" viewBox="0 0 95 95" fill="none" xmlns="http://www.w3.org/2000/svg">
<path d="M7.91663 7.91663L87.0833 87.0833" stroke="#B40F0F" stroke-opacity="0.2" stroke-width="2" stroke-linecap="round" stroke-linejoin="round"/>
<path d="M33.0521 10.6479C40.2192 7.84867 48.0467 7.19893 55.5772 8.77816C63.1077 10.3574 70.0147 14.0971 75.4532 19.5399C80.8918 24.9827 84.6262 31.8926 86.1997 39.4243C87.7731 46.956 87.1173 54.783 84.3125 61.9479" stroke="#B40F0F" stroke-opacity="0.2" stroke-width="2" stroke-linecap="round" stroke-linejoin="round"/>
<path d="M75.525 75.525C71.8447 79.2053 67.4756 82.1246 62.6671 84.1164C57.8585 86.1082 52.7048 87.1333 47.5 87.1333C42.2953 87.1333 37.1416 86.1082 32.333 84.1164C27.5245 82.1246 23.1553 79.2053 19.475 75.525C15.7947 71.8447 12.8754 67.4755 10.8836 62.667C8.89185 57.8585 7.8667 52.7047 7.8667 47.5C7.8667 42.2953 8.89185 37.1415 10.8836 32.333C12.8754 27.5244 15.7947 23.1553 19.475 19.475" stroke="#B40F0F" stroke-opacity="0.2" stroke-width="2" stroke-linecap="round" stroke-linejoin="round"/>
</svg>
