<svg width="72" height="72" viewBox="0 0 72 72" fill="none" xmlns="http://www.w3.org/2000/svg">
<path fill-rule="evenodd" clip-rule="evenodd" d="M26.8063 4.73122C31.3121 -1.57707 40.6877 -1.57707 45.1938 4.73122L45.9112 5.73552C46.7039 6.84575 48.0356 7.44023 49.3914 7.28958L52.5888 6.93429C59.785 6.13476 65.8653 12.2151 65.0657 19.4111L64.7106 22.6085C64.56 23.9645 65.1543 25.2959 66.2645 26.089L67.2689 26.8063C73.577 31.3121 73.577 40.6877 67.2689 45.1938L66.2645 45.9112C65.1543 46.7039 64.56 48.0356 64.7106 49.3914L65.0657 52.5888C65.8653 59.785 59.785 65.8653 52.5888 65.0657L49.3914 64.7106C48.0356 64.56 46.7039 65.1543 45.9112 66.2645L45.1938 67.2689C40.6877 73.577 31.3124 73.577 26.8063 67.2689L26.089 66.2645C25.2959 65.1543 23.9645 64.56 22.6085 64.7106L19.4111 65.0657C12.2151 65.8653 6.13476 59.785 6.93429 52.5888L7.28958 49.3914C7.44023 48.0356 6.84575 46.7039 5.73552 45.9112L4.73122 45.1938C-1.57707 40.6877 -1.57707 31.3124 4.73122 26.8063L5.73552 26.089C6.84575 25.2959 7.44023 23.9645 7.28958 22.6085L6.93429 19.4111C6.13476 12.2151 12.2151 6.13476 19.4111 6.93429L22.6085 7.28958C23.9645 7.44023 25.2959 6.84575 26.089 5.73552L26.8063 4.73122ZM49.9612 25.8049C51.4319 27.2757 51.4319 29.6603 49.9612 31.1309L35.579 45.5131C33.7318 47.3607 30.7362 47.3607 28.889 45.5131L22.0389 38.663C20.5681 37.1924 20.5681 34.8077 22.0389 33.3371C23.5096 31.8664 25.8941 31.8664 27.3649 33.3371L32.234 38.2062L44.6353 25.8049C46.1059 24.3342 48.4906 24.3342 49.9612 25.8049Z" fill="#47D73C"/>
</svg>
